<svg width="1440" height="900" viewBox="0 0 1440 900" fill="none" xmlns="http://www.w3.org/2000/svg">
  <defs>
    <filter id="shadow" x="-20%" y="-20%" width="140%" height="140%">
      <feDropShadow dx="0" dy="10" stdDeviation="18" flood-color="#0F172A" flood-opacity="0.08"/>
    </filter>
    <linearGradient id="heroGrad" x1="0" y1="0" x2="1" y2="1">
      <stop stop-color="#EFF6FF"/>
      <stop offset="1" stop-color="#F0FDFA"/>
    </linearGradient>
    <linearGradient id="areaBlue" x1="0" y1="0" x2="0" y2="1">
      <stop stop-color="#2563EB" stop-opacity="0.20"/>
      <stop offset="1" stop-color="#2563EB" stop-opacity="0"/>
    </linearGradient>
    <linearGradient id="areaGreen" x1="0" y1="0" x2="0" y2="1">
      <stop stop-color="#059669" stop-opacity="0.16"/>
      <stop offset="1" stop-color="#059669" stop-opacity="0"/>
    </linearGradient>
    <style>
      .cn { font-family: "PingFang SC", "Microsoft YaHei", Arial, sans-serif; }
      .mono { font-family: "SFMono-Regular", Consolas, Menlo, monospace; }
      .h1 { font-size: 24px; font-weight: 700; fill: #0F172A; }
      .h2 { font-size: 15px; font-weight: 700; fill: #0F172A; }
      .label { font-size: 12px; fill: #64748B; }
      .muted { font-size: 12px; fill: #94A3B8; }
      .value { font-size: 28px; font-weight: 750; fill: #0F172A; }
      .card { fill: #FFFFFF; stroke: #E2E8F0; filter: url(#shadow); }
      .line { stroke: #E2E8F0; stroke-width: 1; }
    </style>
  </defs>

  <rect width="1440" height="900" fill="#F6F8FB"/>

  <g id="sidebar">
    <rect width="248" height="900" fill="#111827"/>
    <rect x="20" y="22" width="40" height="40" rx="10" fill="#2563EB"/>
    <path d="M31 42h18M40 33v18" stroke="white" stroke-width="2.5" stroke-linecap="round"/>
    <text x="72" y="42" class="cn" font-size="18" font-weight="700" fill="#F8FAFC">FRPS 状态监控</text>
    <circle cx="218" cy="38" r="5" fill="#22C55E"/>
    <text x="52" y="118" class="cn" font-size="14" fill="#9CA3AF">数据看板</text>
    <circle cx="34" cy="113" r="7" fill="#38BDF8" fill-opacity="0.14"/>
    <path d="M31 116l3-6 3 4 4-8" stroke="#6B7280" stroke-width="1.8" stroke-linecap="round" stroke-linejoin="round"/>
    <text x="52" y="170" class="cn" font-size="14" fill="#9CA3AF">代理列表</text>
    <path d="M29 170h14M36 163v14" stroke="#6B7280" stroke-width="1.8" stroke-linecap="round"/>
    <text x="52" y="222" class="cn" font-size="14" fill="#9CA3AF">证书列表</text>
    <rect x="30" y="208" width="13" height="16" rx="2" stroke="#6B7280" stroke-width="1.8"/>
    <path d="M33 208v-4a4 4 0 0 1 8 0v4" stroke="#6B7280" stroke-width="1.8" stroke-linecap="round"/>
    <rect x="16" y="248" width="216" height="42" rx="8" fill="#1F2937"/>
    <rect x="16" y="248" width="3" height="42" rx="1.5" fill="#38BDF8"/>
    <text x="52" y="274" class="cn" font-size="14" font-weight="600" fill="#F8FAFC">历史统计</text>
    <path d="M29 276l5-7 6 4 6-12" stroke="#38BDF8" stroke-width="1.8" stroke-linecap="round" stroke-linejoin="round"/>
    <text x="52" y="322" class="cn" font-size="14" fill="#9CA3AF">系统配置</text>
    <circle cx="36" cy="318" r="7" stroke="#6B7280" stroke-width="1.8"/>
    <path d="M36 307v4M36 325v4M47 318h-4M29 318h-4" stroke="#6B7280" stroke-width="1.8" stroke-linecap="round"/>
    <rect x="20" y="760" width="208" height="88" rx="10" fill="#0B1220" stroke="#243041"/>
    <text x="36" y="790" class="cn" font-size="12" fill="#9CA3AF">最近同步</text>
    <text x="36" y="815" class="cn" font-size="14" font-weight="650" fill="#E5E7EB">2026/04/29 15:42</text>
    <text x="36" y="838" class="cn" font-size="12" fill="#64748B">30 秒自动刷新</text>
  </g>

  <g id="statistics-proxy">
    <rect x="248" y="0" width="1192" height="900" fill="#F6F8FB"/>
    <text x="288" y="54" class="cn h1">代理统计详情</text>
    <text x="288" y="80" class="cn label">动态子页模板：/statistics/:proxyName，按当前代理展示流量、连接峰值与每日明细</text>
    <rect x="1098" y="32" width="146" height="36" rx="8" fill="#FFFFFF" stroke="#CBD5E1"/>
    <path d="M1120 50h42M1120 50l8-8M1120 50l8 8" stroke="#475569" stroke-width="1.8" stroke-linecap="round" stroke-linejoin="round"/>
    <text x="1178" y="55" class="cn" font-size="13" font-weight="650" fill="#334155">返回总览</text>
    <rect x="1256" y="32" width="132" height="36" rx="8" fill="#0F172A"/>
    <path d="M1276 50a10 10 0 1 0 3-7M1279 43h-7v-7" stroke="#F8FAFC" stroke-width="1.8" stroke-linecap="round" stroke-linejoin="round"/>
    <text x="1296" y="55" class="cn" font-size="13" font-weight="650" fill="#F8FAFC">刷新数据</text>

    <rect x="288" y="112" width="1100" height="118" rx="10" fill="url(#heroGrad)" stroke="#BFDBFE" filter="url(#shadow)"/>
    <text x="312" y="148" class="cn h2">当前代理：api-gateway</text>
    <text x="312" y="173" class="cn label">路由参数 proxyName = api-gateway · HTTPS · 在线 · 最近心跳 15 秒前</text>
    <rect x="312" y="192" width="202" height="10" rx="5" fill="#DBEAFE"/>
    <rect x="312" y="192" width="168" height="10" rx="5" fill="#2563EB"/>
    <text x="604" y="150" class="cn value">171.2 GB</text>
    <text x="604" y="176" class="cn label">总流量</text>
    <rect x="796" y="132" width="1" height="64" fill="#BFDBFE"/>
    <text x="840" y="150" class="cn value">68.4 GB</text>
    <text x="840" y="176" class="cn label">上行</text>
    <rect x="1022" y="132" width="1" height="64" fill="#BFDBFE"/>
    <text x="1066" y="150" class="cn value">102.8 GB</text>
    <text x="1066" y="176" class="cn label">下行</text>
    <rect x="1260" y="130" width="74" height="28" rx="14" fill="#DCFCE7" stroke="#86EFAC"/>
    <circle cx="1276" cy="144" r="4" fill="#16A34A"/>
    <text x="1288" y="149" class="cn" font-size="12" font-weight="650" fill="#166534">在线</text>
    <text x="1260" y="178" class="cn label">峰值连接 42</text>

    <rect x="288" y="254" width="1100" height="76" rx="10" class="card"/>
    <rect x="312" y="276" width="196" height="34" rx="8" fill="#F8FAFC" stroke="#CBD5E1"/>
    <circle cx="332" cy="293" r="4" fill="#16A34A"/>
    <text x="346" y="298" class="cn" font-size="13" fill="#334155">当前代理：api-gateway</text>
    <rect x="524" y="276" width="154" height="34" rx="8" fill="#F8FAFC" stroke="#CBD5E1"/>
    <text x="544" y="298" class="mono" font-size="13" fill="#334155">2026-04-01</text>
    <rect x="690" y="276" width="154" height="34" rx="8" fill="#F8FAFC" stroke="#CBD5E1"/>
    <text x="710" y="298" class="mono" font-size="13" fill="#334155">2026-04-29</text>
    <rect x="866" y="276" width="98" height="34" rx="8" fill="#EFF6FF" stroke="#BFDBFE"/>
    <text x="915" y="298" class="cn" text-anchor="middle" font-size="13" font-weight="650" fill="#1D4ED8">最近 30 天</text>
    <rect x="974" y="276" width="78" height="34" rx="8" fill="#FFFFFF" stroke="#CBD5E1"/>
    <text x="1013" y="298" class="cn" text-anchor="middle" font-size="13" fill="#334155">本月</text>
    <rect x="1230" y="276" width="128" height="34" rx="8" fill="#FFFFFF" stroke="#CBD5E1"/>
    <path d="M1248 286v13M1254 286v13M1244 292h14" stroke="#475569" stroke-width="1.8" stroke-linecap="round"/>
    <text x="1270" y="298" class="cn" font-size="13" font-weight="650" fill="#334155">高级筛选</text>

    <rect x="288" y="354" width="740" height="306" rx="10" class="card"/>
    <text x="312" y="390" class="cn h2">代理流量趋势</text>
    <text x="312" y="414" class="cn label">根据路由中的代理名称动态加载单代理上下行趋势</text>
    <g transform="translate(330 442)">
      <line x1="0" y1="160" x2="640" y2="160" class="line"/>
      <line x1="0" y1="120" x2="640" y2="120" class="line"/>
      <line x1="0" y1="80" x2="640" y2="80" class="line"/>
      <line x1="0" y1="40" x2="640" y2="40" class="line"/>
      <path d="M0 136 C50 126 76 140 116 108 C154 78 190 106 228 72 C270 42 306 62 344 52 C388 38 420 52 456 32 C504 10 540 38 578 24 C612 14 628 18 640 14 L640 160 L0 160 Z" fill="url(#areaBlue)"/>
      <path d="M0 136 C50 126 76 140 116 108 C154 78 190 106 228 72 C270 42 306 62 344 52 C388 38 420 52 456 32 C504 10 540 38 578 24 C612 14 628 18 640 14" stroke="#2563EB" stroke-width="3" fill="none" stroke-linecap="round"/>
      <path d="M0 150 C42 134 76 144 112 122 C158 96 194 116 232 88 C270 66 314 86 352 68 C394 44 432 62 472 46 C514 28 548 46 590 34 C620 24 632 28 640 26 L640 160 L0 160 Z" fill="url(#areaGreen)"/>
      <path d="M0 150 C42 134 76 144 112 122 C158 96 194 116 232 88 C270 66 314 86 352 68 C394 44 432 62 472 46 C514 28 548 46 590 34 C620 24 632 28 640 26" stroke="#059669" stroke-width="3" fill="none" stroke-linecap="round"/>
      <g class="cn muted">
        <text x="0" y="198">04-01</text><text x="128" y="198">04-07</text><text x="256" y="198">04-13</text><text x="384" y="198">04-19</text><text x="512" y="198">04-25</text><text x="614" y="198">04-29</text>
      </g>
    </g>

    <rect x="1048" y="354" width="340" height="306" rx="10" class="card"/>
    <text x="1072" y="390" class="cn h2">代理详情</text>
    <text x="1072" y="414" class="cn label">连接、峰值与证书状态</text>
    <rect x="1072" y="438" width="292" height="54" rx="8" fill="#F8FAFC" stroke="#E2E8F0"/>
    <text x="1092" y="462" class="cn label">当前连接</text>
    <text x="1288" y="466" class="mono" font-size="18" font-weight="750" fill="#0F172A">42</text>
    <rect x="1072" y="508" width="292" height="54" rx="8" fill="#F8FAFC" stroke="#E2E8F0"/>
    <text x="1092" y="532" class="cn label">平均日流量</text>
    <text x="1248" y="536" class="mono" font-size="18" font-weight="750" fill="#0F172A">5.9 GB</text>
    <rect x="1072" y="578" width="292" height="54" rx="8" fill="#FFFBEB" stroke="#FDE68A"/>
    <text x="1092" y="602" class="cn label">关联证书</text>
    <text x="1208" y="606" class="mono" font-size="13" fill="#0F172A">api.example.com</text>
    <text x="1290" y="606" class="cn" font-size="13" font-weight="700" fill="#D97706">12 天</text>

    <rect x="288" y="684" width="1100" height="164" rx="10" class="card"/>
    <text x="312" y="720" class="cn h2">当前代理每日明细</text>
    <text x="312" y="744" class="cn label">当前代理 api-gateway 的每日上下行、连接峰值和状态</text>
    <line x1="312" y1="764" x2="1364" y2="764" class="line"/>
    <text x="312" y="790" class="cn label" font-weight="650">日期</text>
    <text x="510" y="790" class="cn label" font-weight="650">类型</text>
    <text x="680" y="790" class="cn label" font-weight="650">连接峰值</text>
    <text x="850" y="790" class="cn label" font-weight="650">上行</text>
    <text x="1010" y="790" class="cn label" font-weight="650">下行</text>
    <text x="1170" y="790" class="cn label" font-weight="650">合计</text>
    <line x1="312" y1="804" x2="1364" y2="804" class="line"/>
    <text x="312" y="832" class="mono" font-size="13" fill="#334155">2026-04-29</text>
    <rect x="510" y="814" width="64" height="24" rx="12" fill="#EFF6FF"/>
    <text x="542" y="831" class="cn" text-anchor="middle" font-size="11" font-weight="650" fill="#1D4ED8">HTTPS</text>
    <text x="680" y="832" class="mono" font-size="13" fill="#334155">42</text>
    <text x="850" y="832" class="mono" font-size="13" fill="#334155">8.6 GB</text>
    <text x="1010" y="832" class="mono" font-size="13" fill="#334155">13.2 GB</text>
    <text x="1170" y="832" class="mono" font-size="13" font-weight="700" fill="#0F172A">21.8 GB</text>
  </g>
</svg>
